<svg xmlns="http://www.w3.org/2000/svg" viewBox="0 0 512 512" aria-hidden="true">
  <g transform="translate(4,104) scale(0.76)">
    <path fill="currentColor" d="M223.5 32C100 32 0 132.3 0 256S100 480 223.5 480c60.6 0 115.5-24.2 155.8-63.4 5-4.9 6.3-12.5 3.1-18.7s-10.1-9.7-17-8.5c-9.8 1.7-19.8 2.6-30.1 2.6-96.9 0-175.5-78.8-175.5-176 0-65.8 36-123.1 89.3-153.3 6.1-3.5 9.2-10.5 7.7-17.3s-7.3-11.9-14.3-12.5c-6.3-.5-12.6-.8-19-.8z"/>
  </g>
  <path fill="none" stroke="currentColor" stroke-width="30" stroke-linecap="round" stroke-linejoin="round"
        d="M258,34 H340 L258,134 H340"/>
  <path fill="none" stroke="currentColor" stroke-width="26" stroke-linecap="round" stroke-linejoin="round"
        d="M388,140 H460 L388,230 H460"/>
</svg>
