<svg xmlns="http://www.w3.org/2000/svg" viewBox="0 0 2600 1103" preserveAspectRatio="xMidYMax slice">
  
  
  <g>
    <path d="M -10.5 19.4 Q -16.1 7.1 -2.5 7.1 L 203.2 7.8 Q 216.8 7.8 219.1 21.1 L 246.5 179.6 Q 248.9 192.9 235.4 194.4 L 89.2 210.2 Q 75.8 211.7 70.2 199.4 Z" fill="#9EA1A5"/>
    <path d="M 229.2 24.9 Q 225.2 5.1 245.5 5.5 L 378.9 8.3 Q 399.2 8.7 410.4 25.7 L 488.4 143.2 Q 499.6 160.1 479.4 162.2 L 281.9 183.0 Q 261.7 185.1 257.7 165.2 Z" fill="#6E7075"/>
    <path d="M 428.9 25.9 Q 416.2 3.7 441.7 3.5 L 522.7 3.0 Q 548.3 2.8 566.8 20.4 L 665.6 114.4 Q 684.1 132.0 659.0 136.5 L 533.1 158.9 Q 508.0 163.3 495.2 141.2 Z" fill="#7B7D82"/>
    <path d="M 570.4 13.5 Q 554.8 0.2 575.3 0.1 L 716.1 -0.0 Q 736.6 -0.1 748.3 16.8 L 822.6 123.2 Q 834.3 140.0 813.9 137.5 L 718.3 125.7 Q 698.0 123.1 682.4 109.8 Z" fill="#B4B7BA"/>
    <path d="M 767.3 19.0 Q 754.0 -2.1 778.9 -1.1 L 920.1 4.7 Q 945.0 5.7 961.8 24.2 L 1082.1 157.4 Q 1098.8 175.9 1074.0 172.8 L 869.8 146.4 Q 845.1 143.2 831.9 122.1 Z" fill="#7B7D82"/>
    <path d="M 974.2 15.8 Q 961.2 2.3 980.0 2.3 L 1171.0 2.5 Q 1189.7 2.6 1196.1 20.1 L 1251.3 170.8 Q 1257.7 188.4 1239.3 185.3 L 1134.6 167.8 Q 1116.1 164.8 1103.2 151.2 Z" fill="#C9CBCE"/>
    <path d="M 1199.1 18.0 Q 1194.2 7.0 1206.3 7.1 L 1343.6 8.8 Q 1355.7 9.0 1363.5 18.2 L 1471.5 147.6 Q 1479.3 156.9 1467.3 158.8 L 1287.0 187.8 Q 1275.1 189.7 1270.2 178.6 Z" fill="#C9CBCE"/>
    <path d="M 1376.6 15.1 Q 1363.1 -1.8 1384.7 -1.1 L 1587.6 5.2 Q 1609.2 5.8 1619.1 25.0 L 1702.9 186.0 Q 1712.9 205.2 1691.8 200.4 L 1508.1 158.1 Q 1487.1 153.3 1473.6 136.4 Z" fill="#8A8C90"/>
    <path d="M 1631.7 26.9 Q 1620.9 7.3 1643.2 7.2 L 1782.9 6.5 Q 1805.2 6.4 1810.5 28.2 L 1843.4 165.5 Q 1848.6 187.2 1826.3 188.9 L 1747.4 194.7 Q 1725.1 196.3 1714.3 176.7 Z" fill="#B4B7BA"/>
    <path d="M 1821.5 20.4 Q 1817.1 3.7 1834.4 4.0 L 2037.6 7.5 Q 2054.9 7.8 2057.5 24.8 L 2084.8 205.0 Q 2087.4 222.1 2070.4 219.5 L 1883.1 191.0 Q 1866.0 188.4 1861.6 171.8 Z" fill="#B4B7BA"/>
    <path d="M 2067.3 22.0 Q 2064.3 5.1 2081.4 5.5 L 2221.1 8.6 Q 2238.3 9.0 2246.0 24.3 L 2306.0 144.0 Q 2313.6 159.3 2297.1 163.9 L 2118.4 212.9 Q 2101.8 217.4 2098.9 200.5 Z" fill="#7B7D82"/>
    <path d="M 2252.5 13.0 Q 2246.9 1.9 2259.3 2.5 L 2341.9 6.5 Q 2354.3 7.1 2364.4 14.4 L 2524.8 130.2 Q 2534.9 137.5 2522.5 138.5 L 2336.8 153.8 Q 2324.4 154.8 2318.7 143.7 Z" fill="#D6D8DA"/>
    <path d="M 2381.1 21.6 Q 2361.9 8.4 2385.2 8.1 L 2556.4 5.8 Q 2579.7 5.5 2588.5 27.1 L 2656.2 192.2 Q 2665.1 213.7 2645.6 200.9 L 2565.5 147.8 Q 2546.1 134.9 2526.8 121.7 Z" fill="#C9CBCE"/>
    <path d="M 66.5 248.9 Q 74.2 233.4 91.2 229.8 L 226.6 201.6 Q 243.5 198.1 234.8 213.1 L 160.9 339.6 Q 152.2 354.6 135.3 358.5 L 12.8 386.8 Q -4.1 390.7 3.6 375.2 Z" fill="#8A8C90"/>
    <path d="M 250.2 210.9 Q 255.7 201.0 267.0 199.9 L 485.5 179.0 Q 496.8 177.9 489.9 186.9 L 345.5 373.9 Q 338.6 382.9 327.3 381.8 L 174.7 366.8 Q 163.4 365.7 168.9 355.8 Z" fill="#5F6166"/>
    <path d="M 498.3 189.8 Q 505.7 179.9 517.7 176.9 L 674.8 137.8 Q 686.8 134.8 683.7 146.8 L 628.6 361.2 Q 625.5 373.2 613.1 373.6 L 368.0 380.1 Q 355.6 380.4 363.0 370.5 Z" fill="#B4B7BA"/>
    <path d="M 695.9 158.6 Q 701.4 136.5 723.9 140.4 L 804.6 154.2 Q 827.1 158.1 828.5 180.9 L 836.6 312.3 Q 838.0 335.1 815.5 339.2 L 664.6 366.8 Q 642.2 370.9 647.8 348.8 Z" fill="#6E7075"/>
    <path d="M 845.2 172.8 Q 844.5 152.9 864.4 154.7 L 1081.7 174.3 Q 1101.5 176.1 1093.5 194.3 L 1022.2 357.5 Q 1014.2 375.8 994.7 372.0 L 870.8 348.1 Q 851.3 344.3 850.6 324.3 Z" fill="#8A8C90"/>
    <path d="M 1105.9 201.3 Q 1115.1 181.1 1137.1 183.4 L 1234.5 193.6 Q 1256.6 195.9 1249.1 216.7 L 1207.7 331.1 Q 1200.2 352.0 1178.2 354.4 L 1050.6 368.8 Q 1028.6 371.2 1037.8 351.1 Z" fill="#5F6166"/>
    <path d="M 1264.0 226.1 Q 1273.3 202.2 1298.6 198.1 L 1450.1 173.5 Q 1475.4 169.4 1471.7 194.8 L 1444.2 382.7 Q 1440.4 408.1 1415.4 402.6 L 1237.7 363.8 Q 1212.7 358.3 1222.0 334.4 Z" fill="#B4B7BA"/>
    <path d="M 1484.4 182.2 Q 1486.5 167.5 1501.1 170.3 L 1704.3 210.1 Q 1718.9 212.9 1710.0 224.9 L 1604.1 367.1 Q 1595.2 379.0 1580.8 382.9 L 1465.2 414.2 Q 1450.8 418.0 1452.9 403.3 Z" fill="#9EA1A5"/>
    <path d="M 1723.1 224.2 Q 1730.6 214.7 1742.6 213.3 L 1843.5 201.5 Q 1855.5 200.1 1849.3 210.5 L 1753.5 371.1 Q 1747.3 381.5 1735.2 381.2 L 1615.0 378.0 Q 1602.9 377.7 1610.4 368.1 Z" fill="#6E7075"/>
    <path d="M 1855.4 221.0 Q 1865.2 204.1 1884.7 206.2 L 2064.9 225.7 Q 2084.4 227.8 2077.6 246.1 L 2020.6 399.1 Q 2013.8 417.4 1994.3 415.5 L 1775.0 394.1 Q 1755.5 392.2 1765.3 375.3 Z" fill="#5F6166"/>
    <path d="M 2092.0 240.3 Q 2095.5 230.4 2105.6 227.1 L 2298.5 163.2 Q 2308.5 159.9 2304.2 169.5 L 2234.4 325.5 Q 2230.1 335.1 2220.4 339.1 L 2038.7 413.7 Q 2029.0 417.7 2032.5 407.7 Z" fill="#5F6166"/>
    <path d="M 2314.6 174.1 Q 2319.1 163.6 2330.5 162.4 L 2527.2 141.1 Q 2538.6 139.9 2532.3 149.5 L 2389.4 370.5 Q 2383.2 380.1 2372.1 377.0 L 2254.6 343.3 Q 2243.6 340.1 2248.1 329.6 Z" fill="#6E7075"/>
    <path d="M 2537.8 159.4 Q 2544.3 148.8 2554.7 155.6 L 2647.7 216.6 Q 2658.1 223.5 2653.2 234.9 L 2593.1 374.0 Q 2588.1 385.4 2575.6 385.5 L 2410.8 386.0 Q 2398.4 386.0 2404.9 375.4 Z" fill="#7B7D82"/>
    <path d="M 6.1 421.4 Q 1.0 403.9 18.8 400.2 L 136.1 375.8 Q 153.9 372.1 164.3 387.1 L 232.4 485.0 Q 242.8 500.0 225.0 503.7 L 59.3 538.3 Q 41.5 542.0 36.3 524.6 Z" fill="#7B7D82"/>
    <path d="M 179.2 390.3 Q 168.0 374.6 187.2 377.0 L 317.4 393.1 Q 336.6 395.5 345.4 412.8 L 421.6 563.2 Q 430.4 580.4 412.7 572.5 L 277.1 511.2 Q 259.5 503.2 248.3 487.5 Z" fill="#9EA1A5"/>
    <path d="M 356.7 403.4 Q 348.7 386.8 367.2 386.7 L 607.3 386.1 Q 625.8 386.0 627.2 404.5 L 634.6 499.4 Q 636.0 517.8 618.1 522.6 L 455.7 566.1 Q 437.8 570.9 429.7 554.3 Z" fill="#9EA1A5"/>
    <path d="M 641.5 398.2 Q 638.9 376.6 660.6 374.3 L 820.4 357.3 Q 842.1 355.0 844.7 376.6 L 868.2 567.3 Q 870.9 588.9 850.3 581.7 L 675.5 520.2 Q 654.9 513.0 652.4 491.4 Z" fill="#5F6166"/>
    <path d="M 855.1 367.4 Q 853.8 356.2 864.8 358.4 L 1003.9 386.0 Q 1014.9 388.2 1016.0 399.3 L 1029.0 530.0 Q 1030.1 541.2 1019.5 544.7 L 891.4 587.2 Q 880.8 590.7 879.5 579.6 Z" fill="#5F6166"/>
    <path d="M 1035.3 404.4 Q 1033.3 385.4 1052.2 383.3 L 1187.3 368.1 Q 1206.3 366.0 1212.7 383.9 L 1279.1 570.4 Q 1285.5 588.4 1266.8 584.4 L 1068.0 542.2 Q 1049.3 538.2 1047.3 519.2 Z" fill="#8A8C90"/>
    <path d="M 1222.8 384.3 Q 1216.4 368.0 1233.4 372.2 L 1422.2 418.2 Q 1439.2 422.3 1446.6 438.1 L 1510.5 573.5 Q 1518.0 589.3 1500.5 589.1 L 1320.6 587.3 Q 1303.2 587.1 1296.7 570.9 Z" fill="#6E7075"/>
    <path d="M 1464.3 448.5 Q 1453.5 425.0 1478.7 418.8 L 1566.7 397.4 Q 1591.9 391.3 1602.3 415.0 L 1644.7 511.6 Q 1655.2 535.3 1631.0 544.8 L 1550.8 576.3 Q 1526.7 585.8 1515.9 562.2 Z" fill="#5F6166"/>
    <path d="M 1611.4 414.2 Q 1603.1 396.4 1622.7 396.3 L 1729.0 395.7 Q 1748.6 395.6 1758.4 412.7 L 1852.2 576.5 Q 1861.9 593.6 1843.1 587.8 L 1686.0 539.4 Q 1667.3 533.6 1658.9 515.8 Z" fill="#5F6166"/>
    <path d="M 1768.1 411.9 Q 1759.3 397.1 1776.4 399.7 L 1990.7 432.4 Q 2007.7 435.0 2022.8 443.2 L 2120.7 496.4 Q 2135.9 504.6 2119.5 509.9 L 1889.5 583.9 Q 1873.1 589.1 1864.3 574.3 Z" fill="#5F6166"/>
    <path d="M 2049.9 439.7 Q 2028.8 426.3 2052.1 417.1 L 2209.0 355.1 Q 2232.3 346.0 2233.8 370.9 L 2240.9 487.6 Q 2242.5 512.5 2217.6 509.5 L 2170.8 503.8 Q 2146.0 500.8 2124.9 487.4 Z" fill="#9EA1A5"/>
    <path d="M 2248.0 369.9 Q 2246.7 353.1 2262.8 358.0 L 2362.6 388.4 Q 2378.7 393.3 2385.7 408.7 L 2443.0 533.6 Q 2450.0 548.9 2433.5 545.8 L 2275.5 516.0 Q 2259.0 512.8 2257.7 496.0 Z" fill="#5F6166"/>
    <path d="M 2403.7 403.9 Q 2397.4 390.2 2412.4 391.5 L 2564.4 404.7 Q 2579.4 406.0 2584.5 420.2 L 2621.4 524.5 Q 2626.5 538.6 2611.4 538.9 L 2482.9 541.4 Q 2467.8 541.7 2461.5 528.1 Z" fill="#D6D8DA"/>
    <path d="M 40.0 563.9 Q 41.8 552.8 52.8 550.6 L 227.4 516.9 Q 238.5 514.8 233.5 524.9 L 141.9 710.8 Q 137.0 720.9 125.9 718.8 L 29.2 700.7 Q 18.1 698.6 19.9 687.5 Z" fill="#7B7D82"/>
    <path d="M 245.7 531.1 Q 253.0 517.4 267.4 522.8 L 415.8 579.0 Q 430.3 584.5 425.0 599.1 L 379.7 725.6 Q 374.5 740.2 359.0 738.9 L 160.2 722.7 Q 144.8 721.4 152.0 707.7 Z" fill="#5F6166"/>
    <path d="M 435.6 609.8 Q 442.1 590.5 461.4 584.4 L 621.7 533.7 Q 641.0 527.6 641.4 547.8 L 644.6 731.4 Q 645.0 751.6 624.7 750.3 L 413.9 736.0 Q 393.7 734.6 400.1 715.4 Z" fill="#6E7075"/>
    <path d="M 648.9 546.0 Q 648.1 533.0 660.7 536.6 L 856.2 592.7 Q 868.8 596.3 863.4 608.3 L 806.5 734.6 Q 801.1 746.5 788.1 746.6 L 673.1 747.5 Q 660.0 747.6 659.3 734.5 Z" fill="#6E7075"/>
    <path d="M 873.2 615.6 Q 880.7 601.4 896.0 596.2 L 1016.0 555.6 Q 1031.3 550.4 1029.4 566.4 L 1017.8 660.5 Q 1015.9 676.5 1000.6 681.6 L 819.4 742.1 Q 804.1 747.2 811.6 733.0 Z" fill="#9EA1A5"/>
    <path d="M 1042.3 573.6 Q 1045.1 550.0 1068.4 554.6 L 1259.8 592.9 Q 1283.1 597.5 1277.8 620.7 L 1252.0 734.5 Q 1246.7 757.7 1224.3 749.8 L 1052.3 689.5 Q 1029.8 681.7 1032.6 658.0 Z" fill="#9EA1A5"/>
    <path d="M 1295.4 618.5 Q 1298.3 606.8 1310.4 606.5 L 1507.4 600.7 Q 1519.4 600.4 1514.0 611.2 L 1444.1 750.6 Q 1438.7 761.4 1426.7 761.8 L 1270.5 767.4 Q 1258.5 767.8 1261.4 756.1 Z" fill="#7B7D82"/>
    <path d="M 1523.5 627.8 Q 1533.9 606.6 1555.4 596.5 L 1635.6 559.1 Q 1657.1 549.0 1646.9 570.4 L 1588.8 692.6 Q 1578.7 714.0 1556.9 723.4 L 1477.1 757.7 Q 1455.4 767.1 1465.8 745.8 Z" fill="#B4B7BA"/>
    <path d="M 1656.9 566.4 Q 1664.9 545.7 1686.3 551.6 L 1839.7 594.2 Q 1861.2 600.1 1847.9 617.9 L 1764.6 729.2 Q 1751.3 747.1 1729.3 743.3 L 1619.1 724.3 Q 1597.2 720.6 1605.2 699.8 Z" fill="#B4B7BA"/>
    <path d="M 1864.2 619.9 Q 1876.6 604.2 1895.4 597.3 L 2113.4 518.2 Q 2132.2 511.4 2117.0 524.4 L 1959.7 658.6 Q 1944.4 671.6 1926.0 679.6 L 1780.3 742.7 Q 1762.0 750.6 1774.3 734.9 Z" fill="#7B7D82"/>
    <path d="M 2137.3 522.0 Q 2145.0 515.3 2155.1 516.4 L 2229.3 524.2 Q 2239.4 525.2 2235.0 534.4 L 2166.7 677.0 Q 2162.3 686.2 2152.2 686.0 L 1963.0 681.9 Q 1952.9 681.7 1960.6 675.0 Z" fill="#5F6166"/>
    <path d="M 2252.9 540.0 Q 2260.9 525.4 2277.2 528.1 L 2431.5 553.8 Q 2447.8 556.5 2439.0 570.6 L 2381.1 662.2 Q 2372.2 676.2 2355.7 677.1 L 2190.0 685.8 Q 2173.5 686.6 2181.4 672.1 Z" fill="#5F6166"/>
    <path d="M 2450.6 568.9 Q 2459.5 553.4 2477.4 553.4 L 2611.0 553.2 Q 2628.9 553.2 2625.4 570.7 L 2603.5 680.9 Q 2600.0 698.4 2582.2 696.7 L 2406.1 679.5 Q 2388.3 677.8 2397.2 662.3 Z" fill="#D6D8DA"/>
    <path d="M 20.2 725.7 Q 19.1 712.6 32.1 714.4 L 122.9 727.3 Q 135.9 729.1 142.4 740.6 L 226.5 889.6 Q 232.9 901.1 219.9 899.2 L 45.3 873.8 Q 32.2 871.9 31.1 858.7 Z" fill="#9EA1A5"/>
    <path d="M 153.9 742.3 Q 145.3 728.0 161.9 729.4 L 364.1 746.2 Q 380.7 747.6 384.6 763.8 L 427.2 940.7 Q 431.1 956.9 415.3 951.6 L 260.8 899.0 Q 245.1 893.6 236.4 879.4 Z" fill="#8A8C90"/>
    <path d="M 399.5 760.2 Q 396.5 744.2 412.8 745.2 L 629.7 759.0 Q 646.0 760.1 653.0 774.8 L 692.7 857.3 Q 699.7 872.0 684.1 876.7 L 450.3 947.5 Q 434.7 952.2 431.7 936.1 Z" fill="#D6D8DA"/>
    <path d="M 673.4 785.9 Q 664.4 767.3 685.0 765.5 L 780.6 756.8 Q 801.2 755.0 807.8 774.5 L 843.6 880.3 Q 850.2 899.8 830.1 895.0 L 732.5 871.6 Q 712.5 866.7 703.5 848.2 Z" fill="#7B7D82"/>
    <path d="M 820.2 774.9 Q 813.7 757.1 831.6 750.8 L 997.7 692.7 Q 1015.6 686.4 1020.3 704.8 L 1056.8 848.0 Q 1061.5 866.4 1042.8 869.4 L 883.7 894.9 Q 865.0 897.9 858.5 880.1 Z" fill="#9EA1A5"/>
    <path d="M 1031.2 708.3 Q 1026.4 691.8 1042.3 698.2 L 1222.8 770.2 Q 1238.7 776.5 1245.3 792.3 L 1314.5 957.3 Q 1321.2 973.1 1305.4 966.4 L 1094.5 877.8 Q 1078.7 871.2 1073.9 854.8 Z" fill="#D6D8DA"/>
    <path d="M 1258.2 787.4 Q 1254.1 777.2 1265.1 777.2 L 1424.0 776.8 Q 1435.0 776.8 1438.4 787.2 L 1477.7 905.2 Q 1481.1 915.6 1470.7 919.0 L 1341.3 960.9 Q 1330.8 964.2 1326.6 954.1 Z" fill="#8A8C90"/>
    <path d="M 1457.0 797.4 Q 1450.6 776.9 1470.8 769.9 L 1566.7 736.8 Q 1587.0 729.8 1593.2 750.4 L 1624.0 852.0 Q 1630.2 872.5 1609.4 877.7 L 1512.3 901.9 Q 1491.5 907.0 1485.1 886.6 Z" fill="#D6D8DA"/>
    <path d="M 1602.1 737.9 Q 1598.6 726.7 1610.0 729.2 L 1738.1 757.0 Q 1749.5 759.5 1757.3 768.3 L 1858.5 883.0 Q 1866.2 891.7 1854.6 890.6 L 1654.6 871.0 Q 1642.9 869.9 1639.4 858.7 Z" fill="#B4B7BA"/>
    <path d="M 1779.2 769.8 Q 1765.5 752.7 1786.2 745.7 L 1922.8 699.6 Q 1943.5 692.6 1958.5 708.5 L 2106.0 864.5 Q 2121.0 880.3 2099.2 880.9 L 1894.5 886.3 Q 1872.7 886.9 1859.1 869.8 Z" fill="#C9CBCE"/>
    <path d="M 1965.2 698.3 Q 1955.8 688.0 1969.7 689.0 L 2146.0 701.6 Q 2159.9 702.6 2163.6 716.0 L 2226.6 947.3 Q 2230.3 960.7 2219.6 951.8 L 2136.2 881.9 Q 2125.5 872.9 2116.0 862.6 Z" fill="#6E7075"/>
    <path d="M 2176.7 713.7 Q 2173.8 700.7 2187.1 699.8 L 2363.9 688.2 Q 2377.2 687.3 2383.9 698.8 L 2477.5 858.9 Q 2484.3 870.4 2471.8 875.1 L 2245.2 960.8 Q 2232.7 965.5 2229.8 952.5 Z" fill="#7B7D82"/>
    <path d="M 2400.4 710.1 Q 2388.2 689.9 2411.6 692.2 L 2580.4 708.9 Q 2603.8 711.2 2606.5 734.6 L 2619.9 849.9 Q 2622.6 873.3 2599.0 872.9 L 2521.8 871.9 Q 2498.2 871.6 2486.0 851.5 Z" fill="#6E7075"/>
    <path d="M 36.4 897.0 Q 38.2 883.3 51.9 884.9 L 219.2 904.7 Q 232.8 906.3 230.1 919.8 L 198.1 1077.5 Q 195.4 1091.0 181.6 1091.1 L 25.0 1091.4 Q 11.2 1091.5 13.0 1077.8 Z" fill="#5F6166"/>
    <path d="M 246.8 931.1 Q 251.4 911.1 270.9 917.4 L 404.0 960.3 Q 423.5 966.6 426.2 986.9 L 438.6 1080.0 Q 441.3 1100.2 420.8 1100.1 L 228.7 1098.9 Q 208.2 1098.7 212.8 1078.8 Z" fill="#8A8C90"/>
    <path d="M 438.4 979.6 Q 437.3 966.6 449.8 962.8 L 687.3 890.5 Q 699.8 886.7 692.9 897.8 L 578.9 1082.6 Q 572.0 1093.7 559.0 1093.9 L 461.2 1095.4 Q 448.1 1095.6 447.0 1082.6 Z" fill="#9EA1A5"/>
    <path d="M 699.4 902.2 Q 709.3 885.4 728.7 888.1 L 837.2 903.2 Q 856.6 905.9 847.4 923.1 L 764.3 1081.0 Q 755.2 1098.3 735.6 1098.2 L 602.7 1097.6 Q 583.2 1097.5 593.1 1080.7 Z" fill="#D6D8DA"/>
    <path d="M 858.0 916.4 Q 862.6 907.3 872.6 905.8 L 1053.1 879.1 Q 1063.2 877.6 1060.2 887.3 L 999.2 1088.0 Q 996.2 1097.7 986.1 1097.7 L 779.2 1096.3 Q 769.1 1096.3 773.6 1087.1 Z" fill="#D6D8DA"/>
    <path d="M 1070.4 903.2 Q 1077.0 881.5 1098.2 889.5 L 1303.0 966.8 Q 1324.3 974.9 1306.5 989.0 L 1190.0 1081.4 Q 1172.2 1095.5 1149.4 1095.9 L 1034.1 1098.0 Q 1011.4 1098.4 1017.9 1076.6 Z" fill="#C9CBCE"/>
    <path d="M 1325.5 990.7 Q 1337.1 981.2 1351.0 975.6 L 1461.8 930.7 Q 1475.7 925.0 1471.7 939.5 L 1433.9 1077.7 Q 1429.9 1092.1 1414.9 1092.9 L 1200.8 1104.1 Q 1185.8 1104.8 1197.4 1095.4 Z" fill="#D6D8DA"/>
    <path d="M 1486.2 935.9 Q 1490.6 919.6 1507.0 915.4 L 1621.2 886.8 Q 1637.6 882.6 1637.6 899.6 L 1637.8 1078.8 Q 1637.8 1095.8 1620.9 1096.0 L 1460.0 1098.5 Q 1443.1 1098.8 1447.4 1082.4 Z" fill="#C9CBCE"/>
    <path d="M 1645.4 902.5 Q 1645.6 882.3 1665.7 884.0 L 1843.0 899.2 Q 1863.1 900.9 1859.9 920.9 L 1835.2 1074.6 Q 1832.0 1094.5 1811.7 1094.9 L 1664.0 1097.4 Q 1643.8 1097.7 1644.0 1077.5 Z" fill="#7B7D82"/>
    <path d="M 1871.0 911.4 Q 1872.6 899.8 1884.3 899.0 L 2108.9 885.1 Q 2120.6 884.3 2113.7 893.8 L 1969.5 1088.2 Q 1962.5 1097.6 1950.8 1098.1 L 1856.5 1102.1 Q 1844.7 1102.6 1846.3 1091.0 Z" fill="#B4B7BA"/>
    <path d="M 2120.4 907.2 Q 2132.0 891.3 2146.9 904.1 L 2212.6 960.8 Q 2227.5 973.7 2220.1 992.0 L 2188.4 1070.3 Q 2181.1 1088.6 2161.4 1090.0 L 1998.8 1101.0 Q 1979.1 1102.3 1990.7 1086.3 Z" fill="#7B7D82"/>
    <path d="M 2232.0 990.6 Q 2236.7 978.4 2249.0 973.9 L 2475.7 891.4 Q 2488.0 886.9 2480.6 897.7 L 2349.3 1089.3 Q 2341.8 1100.2 2328.7 1099.9 L 2204.5 1097.2 Q 2191.4 1096.9 2196.1 1084.6 Z" fill="#B4B7BA"/>
    <path d="M 2478.8 903.9 Q 2492.2 883.5 2516.6 883.8 L 2598.2 884.4 Q 2622.6 884.6 2619.7 908.8 L 2601.2 1065.7 Q 2598.3 1089.9 2574.0 1091.1 L 2372.6 1101.1 Q 2348.3 1102.3 2361.7 1082.0 Z" fill="#8A8C90"/>
  </g>
</svg>
