<svg xmlns="http://www.w3.org/2000/svg" viewBox="3501 0 3339 1444" preserveAspectRatio="xMidYMid slice">
  <path fill="#838186" d="M 3907.988281 2172.886719 L 3506.402344 2172.863281 L 3505.460938 1387.679688 L 3513.441406 1380.515625 C 3529.363281 1384.9375 3545.527344 1387.25 3561.933594 1387.453125 C 3612.367188 1372.398438 3662.753906 1368.917969 3713.105469 1377.015625 L 3879.136719 1413.621094 C 3987.136719 1436.695312 4037.417969 1567.273438 4008.269531 1665.476562 C 3988.859375 1707.265625 3969.441406 1750.097656 3961.570312 1796.304688 C 3944.128906 1920.40625 3929.300781 2044.539062 3917.082031 2168.703125 Z M 3907.988281 2172.886719 "/>
  <path fill="#CFCFD1" d="M 6839.972656 -89.671875 L 6839.960938 674.726562 L 6835.492188 685.414062 L 6675.101562 740.824219 C 6551.503906 775.203125 6464.894531 765.089844 6498.925781 609.125 L 6620.25 215.71875 C 6634.046875 145.992188 6646.367188 76.386719 6657.214844 6.898438 C 6654.214844 -52.21875 6793.113281 -115.382812 6833.515625 -99.367188 C 6837.035156 -97.972656 6838.640625 -93.445312 6839.972656 -89.671875 "/>
  <path fill="#6D6B71" d="M 6839.972656 1309.316406 C 6839.191406 1312.632812 6837.4375 1317.496094 6835.054688 1317.347656 C 6804.136719 1315.429688 6729.371094 1308.792969 6702.152344 1300.761719 C 6682.179688 1294.867188 6668.179688 1285.644531 6663.007812 1263.65625 C 6641.898438 1124.277344 6612.597656 985.652344 6575.113281 847.78125 C 6576.394531 826.96875 6585.320312 816.84375 6606.128906 816.203125 C 6684.027344 826.835938 6761.847656 804.828125 6824.882812 758.210938 L 6839.972656 757.445312 Z M 6839.972656 1309.316406 "/>
  <path fill="#838186" d="M 6839.988281 1385.914062 L 6839.988281 2172.886719 L 6783.855469 2172.746094 L 6775.257812 2167.953125 C 6779.832031 2105.304688 6779.667969 2042.296875 6774.773438 1978.925781 C 6764.535156 1939.527344 6761.769531 1900.578125 6766.46875 1862.074219 C 6796.8125 1710.765625 6798.929688 1557.523438 6795.742188 1404.015625 C 6791.695312 1372.695312 6830.28125 1357.839844 6839.988281 1385.914062 "/>
  <path fill="#CFCFD1" d="M 5825.296875 1956.96875 C 5771.839844 2057.597656 5719.921875 2074.972656 5675.210938 2148.074219 C 5653.589844 2183.425781 5559.699219 2157.253906 5514.359375 2125.417969 C 5494.503906 2111.476562 5485.585938 2087.078125 5480.199219 2064.210938 C 5465.320312 2001.074219 5460.316406 1939.277344 5455.097656 1874.445312 C 5448.535156 1792.890625 5427.734375 1716.769531 5405.609375 1638.480469 C 5395.253906 1601.851562 5398.191406 1563.410156 5402.832031 1526.335938 C 5412.921875 1445.753906 5521.179688 1420.660156 5610.113281 1451.660156 L 5871.992188 1542.941406 L 5977.292969 1571.457031 C 5987.207031 1574.578125 5996.355469 1582.625 5994.019531 1594.507812 L 5965.550781 1739.121094 C 5957.476562 1780.136719 5927.503906 1811.457031 5903.632812 1845.445312 Z M 5825.296875 1956.96875 "/>
  <path fill="#BBBABD" d="M 5524.824219 212.753906 L 5359.703125 142.726562 C 5322.945312 127.136719 5287.75 118.011719 5248.367188 110.855469 L 5063.257812 77.226562 C 5025.652344 70.394531 5007.800781 36.082031 5016.632812 -0.796875 C 5045.117188 -119.75 5122.738281 -221.222656 5226.53125 -286.335938 C 5271.65625 -314.640625 5307.785156 -347.417969 5340.945312 -388.441406 C 5363.839844 -416.765625 5428.628906 -438.152344 5481.644531 -541.402344 C 5504.851562 -586.59375 5523.328125 -630.476562 5537 -680.128906 C 5540.039062 -691.171875 5549.03125 -709.878906 5562.390625 -710.472656 C 5630.507812 -713.496094 5651.160156 -650.363281 5694.8125 -611.257812 C 5704.542969 -602.542969 5709.917969 -591.203125 5709.957031 -577.539062 L 5710.347656 -448.050781 C 5710.570312 -374.136719 5707.835938 -301.726562 5724.089844 -229.824219 L 5764.628906 -50.507812 C 5773.738281 -10.207031 5749.464844 31.859375 5733.324219 68.371094 L 5682.8125 182.636719 C 5675.242188 199.753906 5662.824219 220.488281 5643.765625 225.226562 C 5604.027344 235.113281 5564.011719 229.371094 5524.824219 212.753906 "/>
  <path fill="#6D6A71" d="M 4028.53125 1171.027344 C 4038.226562 1179.035156 4035.765625 1191.238281 4021.144531 1207.640625 C 4013.945312 1206.085938 4005.203125 1213.660156 4012.285156 1219.226562 L 3972.320312 1273.867188 L 3962.453125 1274.085938 L 3962.699219 1288.847656 C 3946.035156 1316.183594 3931.671875 1344.683594 3919.605469 1374.355469 L 3910.058594 1377.171875 L 3719.664062 1332.40625 C 3665.027344 1328.261719 3609.960938 1325.433594 3554.476562 1323.921875 C 3535.070312 1324.140625 3518.742188 1319.007812 3505.488281 1308.523438 L 3505.402344 752.496094 L 3507.273438 745.765625 C 3620.589844 706.765625 3733.382812 661.421875 3845.65625 609.738281 C 3856.941406 599.925781 3870.945312 593.773438 3885.410156 590.378906 C 3910.902344 584.390625 4000.972656 600.195312 4027.015625 611.449219 C 4047.695312 620.386719 4048.597656 624.441406 4050.882812 646.25 C 4040.78125 784.664062 4036.097656 923.777344 4036.824219 1063.59375 C 4032.625 1096.171875 4032.003906 1128.636719 4034.960938 1160.980469 Z M 4028.53125 1171.027344 "/>
  <path fill="#CFCFD2" d="M 3504.640625 696.542969 C 3497.457031 691.03125 3504.878906 683.039062 3504.882812 675.707031 L 3505.367188 -86.210938 C 3506.128906 -89.527344 3507.839844 -94.472656 3510.199219 -94.34375 C 3543.328125 -92.554688 3615.679688 -86.761719 3645.574219 -78.625 C 3656.839844 -75.558594 3668.667969 -69.078125 3675.671875 -59.636719 C 3692.179688 -37.394531 3726.269531 71.382812 3734.339844 103.210938 C 3749.8125 223.738281 3777.871094 340.132812 3840.015625 449.347656 C 3881.042969 554.023438 3816.765625 582.605469 3726.210938 616.28125 L 3514.589844 684.660156 C 3514.589844 684.660156 3511.273438 688.621094 3504.640625 696.542969 "/>
  <path fill="#838187" d="M 5386.457031 617.03125 C 5353.730469 616.132812 5319.894531 615.480469 5293.046875 630.128906 C 5259.582031 648.386719 5227.992188 661.027344 5189.789062 665.644531 C 5151.039062 670.328125 5113.320312 682.40625 5079.628906 701.65625 C 5044.046875 721.992188 5007.621094 731.632812 4966.753906 736.589844 C 4899.890625 744.699219 4864.539062 801.40625 4811.375 830.558594 C 4796.96875 760.855469 4791.667969 692.480469 4795.050781 624.105469 L 4802.597656 471.484375 C 4806.621094 390.160156 4808.332031 312.175781 4832.046875 234.199219 L 4868.238281 115.175781 C 4874.542969 94.453125 4895.355469 82.34375 4915.191406 90.292969 L 5026.308594 134.808594 C 5060.808594 148.628906 5094.472656 160.664062 5131.859375 162.894531 C 5155.824219 164.324219 5179.246094 169.488281 5199.96875 181.601562 C 5226.453125 197.085938 5252.957031 201.402344 5283 202.503906 C 5336.332031 204.464844 5385.03125 224.253906 5435.710938 239.089844 C 5485.742188 253.730469 5533.75 266.84375 5578.210938 296.734375 L 5549.859375 356.265625 C 5536.925781 383.429688 5530.816406 412.21875 5523.0625 441.414062 L 5495.085938 546.765625 C 5482.332031 594.777344 5438.3125 618.453125 5386.457031 617.03125 "/>
  <path fill="#828085" d="M 4546.613281 1319.917969 L 4521.746094 1435.546875 C 4518.601562 1450.164062 4512.15625 1469.179688 4497.527344 1475.382812 C 4484.058594 1481.089844 4465.253906 1474.886719 4452.117188 1468.925781 L 4324.1875 1410.878906 C 4241.734375 1373.46875 4151.304688 1241.765625 4102.296875 1158.3125 C 4083.703125 1126.648438 4074.253906 1091.3125 4079.246094 1054.398438 L 4105.601562 859.648438 C 4114.886719 791.023438 4117.398438 724.515625 4108.472656 656.257812 C 4098.21875 577.871094 4217.304688 592.992188 4297.207031 617.742188 L 4412.347656 653.40625 L 4520.617188 663.058594 C 4572.246094 667.664062 4637.480469 677.355469 4630.394531 726.640625 L 4615.0625 833.292969 C 4597.1875 893.539062 4584.503906 951.144531 4574.441406 1013.257812 C 4563.753906 1079.195312 4548.007812 1142.371094 4549.441406 1209.96875 C 4550.214844 1246.386719 4554.761719 1282.027344 4546.613281 1319.917969 "/>
  <path fill="#6E6B71" d="M 6512.820312 1250.070312 C 6472.605469 1225.191406 6432.742188 1208.214844 6389.273438 1194.347656 L 6304.027344 1167.152344 L 6193.191406 1131.296875 C 6163.621094 1121.730469 6144.175781 1099.582031 6137.8125 1070.015625 L 6110.289062 942.089844 C 6095.871094 875.082031 6086.625 812.390625 6083.296875 743.3125 C 6078.144531 636.378906 6056.441406 534.136719 6035.871094 429.832031 L 6015.609375 357.703125 C 6047.519531 346.363281 6077.972656 336.671875 6110.269531 337.535156 C 6133.429688 338.152344 6148.175781 356.363281 6161.601562 373.324219 L 6437.6875 722.191406 C 6456.695312 746.210938 6471.964844 771.707031 6480.941406 800.265625 C 6494.324219 842.855469 6510.144531 882.097656 6534.617188 919.367188 C 6568.660156 971.214844 6582.222656 1027.910156 6589.691406 1089.292969 C 6596.246094 1143.152344 6613.714844 1245.21875 6589.648438 1268.585938 C 6574.050781 1283.726562 6541.511719 1267.824219 6512.820312 1250.070312 "/>
  <path fill="#6F6B72" d="M 5325.984375 1509.378906 C 5281.507812 1518.359375 5258.351562 1554.492188 5241.777344 1520.917969 L 5183.464844 1402.769531 C 5170.441406 1376.375 5162.210938 1346.605469 5156.566406 1318.210938 C 5148.972656 1279.992188 5128.273438 1255.675781 5101.460938 1229.1875 C 5070.128906 1198.234375 5041.304688 1161.207031 5020.097656 1121.996094 C 4996.984375 1079.261719 4973.519531 1042.1875 4940.292969 1006.652344 C 4892.34375 955.375 4841.648438 870.679688 4899.242188 844.945312 L 4958.566406 818.445312 C 4988.414062 805.109375 5016.359375 792.058594 5042.4375 772.804688 C 5058.613281 760.859375 5078.8125 763.484375 5097.464844 757.835938 C 5170.847656 735.605469 5242.273438 709.457031 5318.800781 699.21875 C 5351.773438 694.804688 5384.015625 700.949219 5413.664062 680.976562 C 5417.894531 678.128906 5428.617188 676.972656 5433.015625 678.621094 C 5437.933594 680.464844 5445.640625 686.066406 5447.816406 693.816406 C 5456.589844 725.085938 5470.539062 752.003906 5485.996094 780.378906 C 5520.605469 843.917969 5565.640625 844.707031 5567.480469 885.597656 L 5570.617188 955.335938 C 5573 1008.289062 5533.546875 1045.566406 5513.722656 1118.800781 C 5491.335938 1201.488281 5423.007812 1220.277344 5398.621094 1315.113281 L 5356.394531 1479.34375 C 5352.433594 1494.753906 5341.457031 1506.253906 5325.984375 1509.378906 "/>
  <path fill="#706C72" d="M 6041.199219 292.796875 C 6012.5 312.625 5916.824219 254.792969 5876.3125 213.542969 C 5864.773438 201.796875 5866.015625 181.582031 5863.21875 165.945312 C 5845.417969 66.375 5838.402344 -33.503906 5809.53125 -130.523438 C 5791.582031 -190.828125 5776.257812 -244.21875 5774.277344 -307.535156 C 5771.519531 -395.703125 5764.375 -482.253906 5772.21875 -570.554688 C 5773.144531 -580.988281 5780.960938 -587.988281 5790.894531 -590.8125 L 5904.726562 -623.183594 C 5987.464844 -646.714844 6121.289062 -685.832031 6157.617188 -612.273438 C 6168.414062 -590.414062 6165.984375 -562.324219 6163.492188 -538.363281 C 6156.820312 -474.230469 6153.480469 -413.277344 6157.476562 -348.746094 C 6160.476562 -300.3125 6157.398438 -253.734375 6149.179688 -206.28125 L 6127.492188 -81.042969 L 6095.636719 81.929688 L 6058.117188 267.6875 C 6056.023438 278.050781 6047.332031 288.558594 6041.199219 292.796875 "/>
  <path fill="#6D6A71" d="M 4836.359375 1726.210938 L 4755.179688 1710.570312 C 4665.421875 1693.273438 4639.644531 1610.429688 4605.785156 1587.953125 C 4572.289062 1565.714844 4555.382812 1531.21875 4566.152344 1491.972656 L 4597.808594 1376.574219 L 4620.5625 1201.617188 C 4620.929688 1153.644531 4627.871094 1112.199219 4635.015625 1065.425781 L 4663.109375 881.542969 L 4672.257812 774.691406 C 4672.796875 768.363281 4676.722656 750.28125 4685.484375 753.917969 C 4713.292969 767.101562 4745.109375 794.324219 4753.347656 825.148438 C 4762.101562 857.914062 4770.535156 883.125 4792.765625 908.53125 L 4879.3125 1007.449219 C 4916.152344 1049.550781 4944.0625 1096.804688 4953.695312 1153.171875 C 4964.671875 1217.445312 4970.785156 1282.289062 4966.035156 1348.097656 L 4953.242188 1525.34375 L 4913.492188 1735.171875 C 4912.421875 1740.804688 4907.757812 1745.917969 4905.125 1748.097656 C 4893.949219 1757.363281 4879.164062 1734.457031 4836.359375 1726.210938 "/>
  <path fill="#838187" d="M 5935.628906 1464.5625 L 5800 1451.308594 C 5709.632812 1442.476562 5656.476562 1401.578125 5566.300781 1382.527344 L 5484.027344 1380.703125 C 5473.816406 1382.285156 5449.402344 1374.929688 5451.367188 1359.976562 C 5467.316406 1238.691406 5505.492188 1256.796875 5546.214844 1167.933594 L 5593.488281 1064.777344 C 5609.542969 1029.742188 5617.460938 993.953125 5617.414062 955.28125 L 5617.328125 886.046875 C 5617.320312 877.644531 5620.4375 869.203125 5625.28125 865.234375 C 5630.816406 860.699219 5639.660156 859.476562 5647.890625 861.292969 L 5713.847656 875.835938 L 5820.988281 881.78125 L 5987.4375 913.125 C 6012.359375 917.816406 6030.785156 930.039062 6038.929688 953.566406 L 6064.402344 1027.140625 C 6086.851562 1091.972656 6107.976562 1154.472656 6138.824219 1215.820312 C 6155.480469 1248.949219 6167.785156 1284.585938 6166.917969 1322.632812 C 6166.429688 1344.03125 6145.832031 1361.183594 6127.074219 1369.105469 C 6079.089844 1389.367188 6036.089844 1412.347656 5995.507812 1444.925781 C 5979.136719 1458.066406 5958.605469 1466.804688 5935.628906 1464.5625 "/>
  <path fill="#C1C2C2" d="M 5511.234375 770.390625 L 5503.910156 774.40625 L 5484.332031 739.308594 C 5487.332031 736.789062 5488.34375 733.558594 5489.585938 731.324219 C 5495.023438 744.761719 5501.632812 758.867188 5511.234375 770.390625 "/>
  <path fill="#D0D0D3" d="M 5699.828125 816.746094 C 5596.402344 775.28125 5551.191406 806.222656 5514.765625 743.1875 C 5484.191406 690.28125 5542.414062 660.683594 5552.546875 583.5 L 5568.609375 461.117188 C 5572.265625 433.273438 5584.125 408.128906 5600.851562 385.339844 L 5673.957031 285.734375 L 5716.785156 238.097656 C 5766.941406 182.316406 5747.058594 137.703125 5781.90625 92.074219 C 5804.367188 132.554688 5814.15625 172.277344 5823.5625 214.421875 C 5838.542969 281.558594 5876.804688 337.53125 5934.230469 375.757812 C 5972.976562 401.554688 5994.585938 439.277344 5999.78125 487.625 L 6024.027344 713.230469 C 6029.335938 762.636719 6028.585938 810.722656 6027.980469 859.746094 C 6027.851562 870.28125 6017.472656 872.765625 6008.875 871.074219 L 5763.886719 822.9375 C 5742.792969 818.792969 5720.265625 824.9375 5699.828125 816.746094 "/>
  <path fill="#6D6B71" d="M 4705.945312 655.65625 C 4663.84375 668.167969 4617.503906 604.632812 4529.6875 608.707031 C 4473.847656 611.300781 4421.652344 601.386719 4371.375 578.433594 C 4328.550781 558.886719 4284.714844 546.816406 4238.804688 538.449219 C 4210.757812 533.335938 4194.226562 512.753906 4194.039062 483.859375 C 4193.734375 436.945312 4202.433594 391.402344 4213.378906 345.457031 C 4218.695312 323.148438 4230.136719 303.613281 4248.019531 288.960938 L 4375.886719 184.191406 C 4419.917969 148.117188 4458.125 113 4494.605469 69.523438 C 4510.753906 50.28125 4543.183594 32.460938 4567.039062 41.160156 C 4604.371094 54.769531 4636.621094 62.335938 4676.914062 63.550781 L 4762.894531 66.136719 C 4787.699219 66.882812 4807.800781 85.734375 4806.371094 114.359375 C 4803.195312 178.035156 4787.941406 242.214844 4767.066406 303.222656 C 4753.097656 344.039062 4751.285156 381.335938 4749.007812 424.289062 L 4740.320312 588.0625 C 4739.097656 611.042969 4729.742188 648.582031 4705.945312 655.65625 "/>
  <path fill="#CFCFD1" d="M 6731.128906 1718.484375 C 6713.300781 1771.601562 6741.234375 1838.511719 6707.433594 1856.582031 C 6694.507812 1863.492188 6677.761719 1862.015625 6664.507812 1851.457031 L 6547.035156 1757.882812 C 6497.328125 1727.710938 6447.972656 1701.386719 6403.65625 1663.691406 C 6379.179688 1642.875 6353.910156 1626.25 6324.5 1613.269531 C 6303.300781 1603.910156 6285.910156 1588.703125 6274.707031 1567.871094 C 6246.527344 1515.472656 6225.789062 1460.078125 6212.28125 1402.191406 C 6199.035156 1345.421875 6213.492188 1292.828125 6245.148438 1245.625 C 6256.117188 1229.265625 6268.65625 1217.496094 6292.378906 1222.878906 C 6369.0625 1240.273438 6440.199219 1271.484375 6511.714844 1304.988281 C 6574.375 1334.34375 6638.234375 1349.703125 6705.300781 1366.171875 C 6719.089844 1369.558594 6738.050781 1374.609375 6742.84375 1388.785156 C 6754.257812 1422.546875 6752.097656 1457.554688 6755.878906 1492.410156 C 6764.296875 1570.042969 6755.945312 1644.550781 6731.128906 1718.484375 "/>
  <path fill="#848187" d="M 6438.335938 555.351562 C 6413.074219 568.644531 6386.4375 552.605469 6370.039062 535.785156 C 6321.417969 485.929688 6277.753906 435.917969 6236.464844 380.125 L 6186.679688 312.855469 C 6164.46875 282.84375 6151.691406 247.117188 6153.929688 207.996094 L 6168.195312 -41.265625 C 6169.332031 -61.085938 6176.441406 -94.753906 6193.972656 -104.480469 C 6233.46875 -117.65625 6275.566406 -116.820312 6317.175781 -117.054688 L 6584.234375 -118.574219 C 6607.71875 -118.707031 6626.191406 -98.863281 6627.78125 -76.6875 C 6629.230469 -56.476562 6627.582031 -37.566406 6622.390625 -17.605469 L 6532.441406 328.175781 C 6520.957031 372.324219 6502.042969 409.0625 6499.953125 456.125 C 6498.214844 495.25 6475.597656 535.742188 6438.335938 555.351562 "/>
  <path fill="#848287" d="M 4046.386719 578.027344 C 3979.40625 568.152344 3963.5625 562.664062 3940.0625 508.714844 L 3864.03125 334.15625 C 3833.425781 263.878906 3804.910156 197.144531 3785.546875 122.945312 L 3730.632812 -50.765625 C 3727.605469 -60.339844 3723.074219 -80.582031 3733.164062 -87.261719 C 3764.648438 -108.097656 3794.292969 -128.101562 3821.140625 -154.964844 L 3883.875 -217.734375 C 3892.6875 -226.554688 3914.984375 -236.300781 3925.238281 -228.992188 C 3937.351562 -198.140625 3949.207031 -172.148438 3970.523438 -147.820312 C 3998.609375 -115.769531 4022.050781 -80.65625 4043.121094 -43.746094 C 4058.097656 -17.511719 4064.863281 9.808594 4068.046875 39.796875 C 4071.929688 76.339844 4088.515625 107.757812 4106.265625 139.214844 C 4153.605469 223.113281 4168.097656 315.476562 4143.472656 408.816406 C 4131 456.097656 4119 501.347656 4098.828125 545.785156 C 4089.597656 566.117188 4069.785156 581.476562 4046.386719 578.027344 "/>
  <path fill="#6E6A72" d="M 4967.640625 -73.042969 L 4909.441406 4.929688 C 4901.585938 15.453125 4889.042969 21.375 4875.035156 18.796875 L 4681.8125 -16.738281 C 4630.25 -26.21875 4672.671875 -66.667969 4661.90625 -131.433594 L 4623.832031 -360.425781 C 4618.765625 -390.902344 4612.40625 -418.785156 4618.964844 -449.257812 C 4629.417969 -497.800781 4675.5625 -491.832031 4730.484375 -479.910156 C 4810.40625 -462.558594 4891.402344 -442.550781 4974.636719 -449.960938 C 5064.414062 -457.957031 5151.140625 -466.109375 5239.355469 -445.785156 C 5246.785156 -444.074219 5254.40625 -436.945312 5256.054688 -431.882812 C 5257.828125 -426.441406 5254.316406 -416.164062 5249.289062 -410.691406 L 5207.957031 -365.664062 C 5171.855469 -326.335938 5129.074219 -295.558594 5097.34375 -251.824219 Z M 4967.640625 -73.042969 "/>
  <path fill="#D0D0D0" d="M 6232.21875 1522.242188 C 6227.910156 1523.304688 6226.605469 1526.867188 6225.644531 1532.273438 L 6196.09375 1448.882812 C 6199.730469 1446.085938 6201.367188 1442.304688 6202.378906 1439.449219 Z M 6232.21875 1522.242188 "/>
  <path fill="#6E6B72" d="M 6093.5 1995.066406 L 5966.769531 1962.742188 C 5950.5 1958.59375 5940.546875 1948.101562 5940.789062 1931.113281 C 5941.027344 1914.3125 5938.371094 1895.417969 5947.382812 1880.523438 L 6022.128906 1756.988281 C 6056.101562 1700.835938 6049.542969 1576.667969 6030.882812 1507.992188 C 6029.242188 1501.941406 6030.03125 1483.882812 6035.808594 1481.433594 C 6103.484375 1461.019531 6154.015625 1383.496094 6173.75 1439.957031 L 6205.0625 1529.535156 C 6219.9375 1572.082031 6240.222656 1608.484375 6267.3125 1644.75 C 6299.175781 1687.40625 6315.996094 1743.011719 6303.445312 1795.941406 L 6270.195312 1936.183594 L 6230.300781 2059.84375 C 6220.703125 2089.59375 6168.996094 2014.320312 6093.5 1995.066406 "/>
  <path fill="#706C72" d="M 5219.199219 1558.9375 C 5225.074219 1567.886719 5230.863281 1574.785156 5230.378906 1583.414062 C 5229.910156 1591.761719 5223.128906 1599.523438 5215.394531 1606.636719 C 5160.566406 1657.066406 5080.625 1653.988281 5017.113281 1705.839844 C 5001.355469 1718.710938 4987.195312 1733.746094 4963.863281 1737.886719 C 4984.964844 1607.195312 5009.308594 1482.339844 5016.035156 1352.382812 L 5022.089844 1235.382812 C 5032.863281 1235.066406 5040.800781 1242.101562 5046.140625 1250.777344 C 5081.089844 1307.570312 5081.5625 1367.042969 5123.082031 1411.242188 C 5143.726562 1433.222656 5158.351562 1457.238281 5170.53125 1484.855469 Z M 5219.199219 1558.9375 "/>
  <path fill="#A4A3A4" d="M 3990.253906 1275.246094 C 3989.472656 1273.351562 3988.019531 1271.777344 3986.019531 1271.027344 C 3992.179688 1264.761719 3993.140625 1254.160156 4002.980469 1248.335938 C 4001.742188 1260.632812 3993.980469 1266.863281 3990.253906 1275.246094 "/>
  <path fill="#A4A3A4" d="M 3985.566406 1292.320312 C 3986.132812 1287.75 3984.019531 1281.191406 3990.148438 1278.859375 C 3991.007812 1283.875 3990.351562 1289.71875 3985.566406 1292.320312 "/>
  <path fill="#6E6A71" d="M 4106.414062 1545.085938 C 4083.671875 1561.054688 4044.210938 1503.621094 4022.628906 1470.183594 C 4004.15625 1441.5625 3976.617188 1406.746094 3976.378906 1371.816406 C 3984.484375 1344.140625 4003.339844 1317.613281 4006.425781 1287.109375 C 4008.375 1267.851562 4023.546875 1254.765625 4038.546875 1245.988281 L 4059.90625 1233.480469 C 4107.191406 1314.996094 4163.933594 1383.835938 4238.746094 1441.128906 C 4218.714844 1466.175781 4197.109375 1481.394531 4173.945312 1497.664062 Z M 4106.414062 1545.085938 "/>
  <path fill="#6F6B72" d="M 4242.972656 219.527344 C 4237.21875 223.488281 4222.515625 233.375 4215.1875 229.15625 C 4195.890625 213.699219 4185.199219 187.992188 4176.675781 164.316406 L 4125.207031 21.308594 C 4116.273438 -3.511719 4103.050781 -26.015625 4104.195312 -53.007812 C 4174.515625 -33.476562 4239.058594 -20.578125 4306.667969 -8.902344 C 4345.496094 -2.195312 4380.273438 13.886719 4410.449219 41.652344 C 4396.617188 72.273438 4381.226562 102.820312 4357.121094 126.066406 C 4321.015625 160.882812 4284.261719 191.105469 4242.972656 219.527344 "/>
</svg>
