<svg xmlns="http://www.w3.org/2000/svg" viewBox="0 0 2600 600" width="2600" height="600" preserveAspectRatio="none"><path d="M 0 600 L 0 203 Q 25 203 50 236 Q 75 269 100 269 Q 125 269 150 240 Q 175 211 200 211 Q 225 211 250 188 Q 275 166 300 166 Q 325 166 350 197 Q 375 228 400 228 Q 425 228 450 191 Q 475 153 500 153 Q 525 153 550 153 Q 575 153 600 153 Q 625 153 650 150 Q 675 148 700 148 Q 725 148 750 212 Q 775 275 800 275 Q 825 275 850 230 Q 875 185 900 185 Q 925 185 950 175 Q 975 164 1000 164 Q 1025 164 1050 138 Q 1075 111 1100 111 Q 1125 111 1150 156 Q 1175 202 1200 202 Q 1225 202 1250 207 Q 1275 213 1300 213 Q 1325 213 1350 211 Q 1375 210 1400 210 Q 1425 210 1450 207 Q 1475 204 1500 204 Q 1525 204 1550 242 Q 1575 280 1600 280 Q 1625 280 1650 269 Q 1675 258 1700 258 Q 1725 258 1750 221 Q 1775 184 1800 184 Q 1825 184 1850 143 Q 1875 102 1900 102 Q 1925 102 1950 149 Q 1975 196 2000 196 Q 2025 196 2050 195 Q 2075 194 2100 194 Q 2125 194 2150 201 Q 2175 208 2200 208 Q 2225 208 2250 238 Q 2275 267 2300 267 Q 2325 267 2350 272 Q 2375 277 2400 277 Q 2425 277 2450 214 Q 2475 150 2500 150 Q 2525 150 2550 200 Q 2575 249 2600 249 L 2600 600 Z" fill="#000"/></svg>